<svg width="33" height="37" viewBox="0 0 33 37" fill="none" xmlns="http://www.w3.org/2000/svg">
<path d="M0 12.5624V34.5C0 35.6046 0.895429 36.5 2 36.5H10.7057C11.8103 36.5 12.7057 35.6046 12.7057 34.5V27.4677C12.7057 26.3632 13.6011 25.4677 14.7057 25.4677H17.9375C19.0421 25.4677 19.9375 26.3632 19.9375 27.4677V34.5C19.9375 35.6046 20.8329 36.5 21.9375 36.5H31C32.1046 36.5 33 35.6046 33 34.5V12.6367C33 11.9493 32.647 11.3101 32.0652 10.944L16.6036 1.21415C15.917 0.782107 15.0375 0.807554 14.3771 1.27857L0.838698 10.9341C0.312421 11.3094 0 11.916 0 12.5624Z" fill="white"/>
</svg>
