<svg width="30" height="40" viewBox="0 0 30 40" fill="none" xmlns="http://www.w3.org/2000/svg">
<path d="M25.5333 13.75C25.5333 20.4555 20.1517 25.875 13.5333 25.875C6.91491 25.875 1.53333 20.4555 1.53333 13.75C1.53333 7.0445 6.91491 1.625 13.5333 1.625C20.1517 1.625 25.5333 7.0445 25.5333 13.75Z" stroke="white" stroke-opacity="0.9" stroke-width="2"/>
<path d="M24.0296 37.3038L18.3415 25.3455C18.0761 24.7874 18.2976 24.1193 18.8439 23.8304C19.3412 23.5674 19.9556 23.7016 20.2981 24.1479L28.3594 34.6536C29.2507 35.8152 28.9843 37.4868 27.776 38.3137C26.4821 39.1993 24.7031 38.7197 24.0296 37.3038Z" fill="white" fill-opacity="0.9"/>
<path d="M5.43032 18.125C3.66481 10.7299 5.80863 3.73826 15.2667 4.14164C10.8529 5.48619 5.43032 7.36854 5.43032 18.125Z" fill="#F1F8FD"/>
</svg>
